# xmcd
#
# Track frame offsets:
#	150
#	20104
#	31799
#	54335
#	67712
#	86535
#	100539
#	120546
#	141101
#	155253
#	170140
#	191328
#
# Disc length: 2742 seconds
#
# Revision: 0
# Processed by: cddbd v1.4PL0 Copyright (c) Steve Scherf et al.
# Submitted via: audiograbber 1.81.03
#
DISCID=8d0ab40c
DTITLE=Emad Sayyah - Modern Bellydance from Lebanon: Sunset Princess
DYEAR=1999
DGENRE=Other
TTITLE0=Raksat Al Ghazaala [Intsrumental]
TTITLE1=Ya Leyli
TTITLE2=Rimaal Wa Jimaal [Instrumental]
TTITLE3=Leh Leh Leh
TTITLE4=Rakkesni Ya Habibi [Instrumental]
TTITLE5=Lah
TTITLE6=Jibaal Wa Widyaan [Instrumental]
TTITLE7=Hilwi Hal Hayaat [Instrumental]
TTITLE8=Yislamlil Amar
TTITLE9=Soukkar Daayeb [Instrumental]
TTITLE10=Yasmin [Instrumental]
TTITLE11=Ya Salaam [Drum Solo, Instrumental]
EXTD=
EXTT0=
EXTT1=
EXTT2=
EXTT3=
EXTT4=
EXTT5=
EXTT6=
EXTT7=
EXTT8=
EXTT9=
EXTT10=
EXTT11=
PLAYORDER=
